<?xml version="1.0" encoding="iso-8859-1"?>
<!-- Generator: Adobe Illustrator 19.0.0, SVG Export Plug-In . SVG Version: 6.00 Build 0)  -->
<svg xmlns="http://www.w3.org/2000/svg" xmlns:xlink="http://www.w3.org/1999/xlink" version="1.1" id="Capa_1" x="0px" y="0px" viewBox="0 0 416 416" style="enable-background:new 0 0 416 416;" xml:space="preserve" width="512px" height="512px">
<g>
	<g>
		<path d="M388,87.28v0.12H274.52V64.64c-0.022-12.76-10.36-23.098-23.12-23.12h-89.96c-6.128,0.006-12.001,2.453-16.32,6.8    c-4.347,4.319-6.794,10.192-6.8,16.32V87.4H28c-15.464,0-28,12.536-28,28v228.96c0.044,16.617,13.503,30.076,30.12,30.12H385.6    c16.679,0.11,30.289-13.321,30.399-29.999c0-0.04,0-0.081,0.001-0.121V115.28C416,99.816,403.464,87.28,388,87.28z M149.8,64.64    c0.022-6.419,5.221-11.618,11.64-11.64h89.92c6.41,0.044,11.596,5.23,11.64,11.64V87.4H149.8V64.64z M11.6,117.28    c0.044-10.276,8.364-18.596,18.64-18.64h355.48c10.276,0.044,18.596,8.364,18.64,18.64l-0.12,112.12    c-0.044,9.039-7.361,16.356-16.4,16.4H232v-16.24c0-7.666-6.214-13.88-13.88-13.88h-20.28c-3.655-0.012-7.165,1.427-9.76,4    c-2.573,2.595-4.012,6.105-4,9.76v16.24H28c-9.039-0.044-16.356-7.361-16.4-16.4V117.28z M195.32,245.8v-16.24    c0.029-0.586,0.27-1.141,0.68-1.56c0.45-0.438,1.053-0.682,1.68-0.68H218c1.326,0,2.4,1.075,2.4,2.4v16.24L195.32,245.8z     M220.4,257.28v16.24c0.006,0.628-0.239,1.233-0.68,1.68c-0.447,0.441-1.052,0.686-1.68,0.68h-20.2c-1.326,0-2.4-1.075-2.4-2.4    v-16.2H220.4z M404.4,344.36c-0.044,10.276-8.364,18.596-18.64,18.64H30.24c-10.276-0.044-18.596-8.364-18.64-18.64V252    c4.767,3.457,10.511,5.307,16.4,5.28h156v16.24c0,7.666,6.214,13.88,13.88,13.88h20.32c3.654,0.007,7.162-1.431,9.76-4    c2.569-2.598,4.007-6.106,4-9.76v-16.36h156c5.902,0.035,11.662-1.815,16.44-5.28V344.36z" fill="#797d80"/>
	</g>
</g>
<g>
</g>
<g>
</g>
<g>
</g>
<g>
</g>
<g>
</g>
<g>
</g>
<g>
</g>
<g>
</g>
<g>
</g>
<g>
</g>
<g>
</g>
<g>
</g>
<g>
</g>
<g>
</g>
<g>
</g>
</svg>
